<?xml version="1.0" encoding="utf-8"?>
<!-- Generator: Adobe Illustrator 16.0.0, SVG Export Plug-In . SVG Version: 6.00 Build 0)  -->
<!DOCTYPE svg PUBLIC "-//W3C//DTD SVG 1.1//EN" "http://www.w3.org/Graphics/SVG/1.1/DTD/svg11.dtd">
<svg version="1.1" id="Layer_1" xmlns="http://www.w3.org/2000/svg" xmlns:xlink="http://www.w3.org/1999/xlink" x="0px" y="0px"
	 width="80px" height="80px" viewBox="0 0 80 80" enable-background="new 0 0 80 80" xml:space="preserve">
<path fill="#FFFFFF" d="M50.312,40H43.75v24.062h-8.906V40H28.75v-8.281h6.094v-4.844c0-3.646,0.677-6.38,2.031-8.203
	s3.906-2.734,7.656-2.734h6.562v8.281h-4.062c-1.458,0-2.37,0.261-2.734,0.781s-0.547,1.406-0.547,2.656v4.062h7.5L50.312,40z M40,0
	C28.958,0,19.531,3.906,11.719,11.719S0,28.958,0,40s3.906,20.469,11.719,28.281S28.958,80,40,80s20.469-3.906,28.281-11.719
	S80,51.042,80,40s-3.906-20.469-11.719-28.281S51.042,0,40,0z"/>
</svg>
